HIERARCHY
ROOT joint_Root
{
	OFFSET 0.0 0.0 0.0
	CHANNELS 6 Xposition Yposition Zposition Zrotation Xrotation Yrotation 
	JOINT Hips
	{
		OFFSET -0.726466 93.3139 -2.00062
		CHANNELS 6 Xposition Yposition Zposition Zrotation Xrotation Yrotation 
		JOINT Spine
		{
			OFFSET 15.7357 0.0 0.0
			CHANNELS 6 Xposition Yposition Zposition Zrotation Xrotation Yrotation 
			JOINT Chest
			{
				OFFSET 8.98455 -0.406207 0.0
				CHANNELS 6 Xposition Yposition Zposition Zrotation Xrotation Yrotation 
				JOINT Neck
				{
					OFFSET 16.3773 0.0 0.0
					CHANNELS 6 Xposition Yposition Zposition Zrotation Xrotation Yrotation 
					JOINT Head
					{
						OFFSET 6.45672 0.0 0.0
						CHANNELS 6 Xposition Yposition Zposition Zrotation Xrotation Yrotation 
						End Site
						{
							OFFSET 0.0 0.0 0.0
						}
					}
				}
				JOINT Shoulder_L
				{
					OFFSET 12.9942 -0.242716 4.98039
					CHANNELS 6 Xposition Yposition Zposition Zrotation Xrotation Yrotation 
					JOINT UpperArm_L
					{
						OFFSET 5.34809 0.0 0.0
						CHANNELS 6 Xposition Yposition Zposition Zrotation Xrotation Yrotation 
						JOINT LowerArm_L
						{
							OFFSET 24.3286 1.87007e-05 0.0
							CHANNELS 6 Xposition Yposition Zposition Zrotation Xrotation Yrotation 
							JOINT Hand_L
							{
								OFFSET 22.2916 0.0 0.0
								CHANNELS 6 Xposition Yposition Zposition Zrotation Xrotation Yrotation 
								End Site
								{
									OFFSET 0.0 0.0 0.0
								}
							}
						}
					}
				}
				JOINT Shoulder_R
				{
					OFFSET 12.9945 -0.242716 -4.98039
					CHANNELS 6 Xposition Yposition Zposition Zrotation Xrotation Yrotation 
					JOINT UpperArm_R
					{
						OFFSET -5.34813 0.0 0.0
						CHANNELS 6 Xposition Yposition Zposition Zrotation Xrotation Yrotation 
						JOINT LowerArm_R
						{
							OFFSET -24.3289 0.000322201 0.0
							CHANNELS 6 Xposition Yposition Zposition Zrotation Xrotation Yrotation 
							JOINT Hand_R
							{
								OFFSET -22.2915 -0.000108084 0.0
								CHANNELS 6 Xposition Yposition Zposition Zrotation Xrotation Yrotation 
								End Site
								{
									OFFSET 0.0 0.0 0.0
								}
							}
						}
					}
				}
			}
		}
		JOINT UpperLeg_L
		{
			OFFSET -2.19248 -6.46944 0.0
			CHANNELS 6 Xposition Yposition Zposition Zrotation Xrotation Yrotation 
			JOINT LowerLeg_L
			{
				OFFSET 39.0811 0.0 -1.23785e-05
				CHANNELS 6 Xposition Yposition Zposition Zrotation Xrotation Yrotation 
				JOINT Foot_L
				{
					OFFSET 40.9854 0.0 -1.26872e-05
					CHANNELS 6 Xposition Yposition Zposition Zrotation Xrotation Yrotation 
					JOINT Toes_L
					{
						OFFSET 11.7543 0.0 0.0
						CHANNELS 6 Xposition Yposition Zposition Zrotation Xrotation Yrotation 
						End Site
						{
							OFFSET 0.0 0.0 0.0
						}
					}
				}
			}
		}
		JOINT UpperLeg_R
		{
			OFFSET -2.19251 6.46944 0.0
			CHANNELS 6 Xposition Yposition Zposition Zrotation Xrotation Yrotation 
			JOINT LowerLeg_R
			{
				OFFSET -39.0811 -0.00228153 -0.0401928
				CHANNELS 6 Xposition Yposition Zposition Zrotation Xrotation Yrotation 
				JOINT Foot_R
				{
					OFFSET -40.9854 0.0 0.0
					CHANNELS 6 Xposition Yposition Zposition Zrotation Xrotation Yrotation 
					JOINT Toes_R
					{
						OFFSET -11.7543 0.0 0.0
						CHANNELS 6 Xposition Yposition Zposition Zrotation Xrotation Yrotation 
						End Site
						{
							OFFSET 0.0 0.0 0.0
						}
					}
				}
			}
		}
	}
}
MOTION
Frames:	8
Frame Time:	0.0333333
0.000000 0.000000 0.000000 0.000000 0.000000 -0.000000 0.484028 82.311100 472.863000 -82.638000 -0.743575 170.230000 15.735700 0.000005 -0.000001 89.509900 78.933400 -84.729500 8.984550 -0.406207 -0.000000 14.380600 0.089015 9.554200 16.377300 -0.000001 -0.000001 -0.839684 -0.404902 -1.125050 6.456720 -0.000001 -0.000000 -5.705460 2.962990 -4.527980 12.994200 -0.242716 4.980390 -89.224600 -2.418270 -72.215900 5.348090 -0.000007 -0.000001 -74.639600 36.415400 -9.044280 24.328600 0.000019 0.000005 -6.592820 -4.423220 -56.279400 22.291600 -0.000001 0.000005 6.118240 5.660930 -16.167500 12.994500 -0.242716 -4.980390 86.966300 7.884280 -68.875400 -5.348130 -0.000001 -0.000004 -57.631900 30.254600 -10.586500 -24.328900 0.000322 -0.000009 -2.352580 -0.286660 -83.046300 -22.291500 -0.000108 -0.000004 23.929000 5.655550 -15.568000 -2.192480 -6.469440 -0.000000 -172.742000 -0.784922 -16.893700 39.081100 -0.000007 -0.000012 -0.415606 -0.023861 93.287100 40.985400 -0.000006 -0.000013 3.017140 -0.549871 -38.466200 11.754300 -0.000000 0.000003 -0.011824 -0.116805 -21.338300 -2.192510 6.469440 -0.000001 -164.897000 7.203020 149.868000 -39.081100 -0.002282 -0.040193 -0.007696 0.007235 56.464400 -40.985400 0.000008 0.000006 6.180880 -9.819470 -87.063700 -11.754300 -0.000006 -0.000006 -0.007116 -0.080655 -19.856600
0.000000 0.000000 0.000000 0.000000 0.000000 -0.000000 0.676134 80.870200 468.138000 -84.579200 0.144785 170.068000 15.735700 0.000005 -0.000001 91.493600 79.275200 -87.387300 8.984550 -0.406207 -0.000000 13.662800 0.764205 8.123020 16.377300 -0.000001 -0.000001 -0.517253 -0.306266 -0.882256 6.456720 -0.000001 -0.000000 -4.986340 3.412810 -5.233170 12.994200 -0.242716 4.980390 -89.253500 -2.340770 -72.305200 5.348090 -0.000007 -0.000001 -76.563600 36.842600 -0.937379 24.328600 0.000019 0.000005 -0.675979 -0.699437 -43.996500 22.291600 -0.000001 0.000005 5.584790 5.658370 -15.868800 12.994500 -0.242716 -4.980390 86.854700 8.373780 -69.326900 -5.348130 -0.000001 -0.000004 -52.187200 28.375800 -25.905300 -24.328900 0.000322 -0.000009 -2.318600 -0.140844 -86.519300 -22.291500 -0.000108 -0.000004 27.294600 5.661520 -16.236000 -2.192480 -6.469440 -0.000000 -175.839000 0.110867 -29.807500 39.081100 -0.000007 -0.000012 -0.672805 -0.220569 108.151000 40.985400 -0.000006 -0.000013 6.045830 -3.710600 -39.977900 11.754300 -0.000000 0.000003 -0.009285 -0.098223 -20.577900 -2.192510 6.469440 -0.000001 -167.321000 8.601110 152.654000 -39.081100 -0.002282 -0.040193 0.123771 -0.073132 58.759800 -40.985400 0.000008 0.000006 6.151800 -8.643500 -92.337700 -11.754300 -0.000006 -0.000006 -0.005798 -0.068991 -19.380800
0.000000 0.000000 0.000000 0.000000 0.000000 -0.000000 0.453938 80.832000 462.574000 -86.802500 2.281210 170.323000 15.735700 0.000005 -0.000001 96.487800 79.623500 -93.469300 8.984550 -0.406207 -0.000000 12.804200 2.454410 5.762000 16.377300 -0.000001 -0.000001 0.019890 -0.325763 -0.072904 6.456720 -0.000001 -0.000000 -3.881320 2.661850 -5.736550 12.994200 -0.242716 4.980390 -89.111300 -2.649700 -71.450800 5.348090 -0.000007 -0.000001 -77.042800 38.651300 8.875580 24.328600 0.000019 0.000005 2.748500 2.793230 -44.568400 22.291600 -0.000001 0.000005 0.684640 5.641730 -14.269500 12.994500 -0.242716 -4.980390 87.635600 6.451580 -69.823300 -5.348130 -0.000001 -0.000004 -52.627400 24.773800 -35.662500 -24.328900 0.000322 -0.000009 -0.604860 0.042183 -93.973300 -22.291500 -0.000108 -0.000004 27.027200 5.666880 -16.923200 -2.192480 -6.469440 -0.000000 -179.816000 -0.122966 -39.456400 39.081100 -0.000007 -0.000012 -0.775442 -0.352552 114.448000 40.985400 -0.000006 -0.000013 9.239620 -7.442190 -45.076300 11.754300 -0.000000 0.000003 -0.010049 -0.104018 -20.814900 -2.192510 6.469440 -0.000001 -171.504000 10.714900 158.793000 -39.081100 -0.002282 -0.040193 0.149046 -0.097564 56.215700 -40.985400 0.000008 0.000006 6.465590 -5.100360 -94.847900 -11.754300 -0.000006 -0.000006 -0.006101 -0.071753 -19.493400
0.000000 0.000000 0.000000 0.000000 0.000000 -0.000000 0.148409 82.438400 456.154000 -89.692800 5.558250 169.315000 15.735700 0.000005 -0.000001 104.490000 80.179400 -103.203000 8.984550 -0.406207 -0.000000 11.226000 4.915040 2.090070 16.377300 -0.000001 -0.000001 0.455923 -0.175934 0.599044 6.456720 -0.000001 -0.000000 -2.991230 0.681813 -4.729970 12.994200 -0.242716 4.980390 -88.527400 -4.052650 -70.010900 5.348090 -0.000007 -0.000001 -77.862500 42.038000 17.298500 24.328600 0.000019 0.000005 0.676324 0.576502 -49.580300 22.291600 -0.000001 0.000005 0.271456 5.649380 -14.956600 12.994500 -0.242716 -4.980390 88.355000 4.602790 -70.308800 -5.348130 -0.000001 -0.000004 -54.513400 22.113500 -41.102900 -24.328900 0.000322 -0.000009 -2.155490 0.455400 -101.914000 -22.291500 -0.000108 -0.000004 27.703800 5.662500 -16.355400 -2.192480 -6.469440 -0.000000 175.646000 -0.948571 -46.719100 39.081100 -0.000007 -0.000012 -0.637040 -0.255057 111.820000 40.985400 -0.000006 -0.000013 10.465200 -9.958480 -51.083200 11.754300 -0.000000 0.000003 -0.007808 -0.086471 -20.097800 -2.192510 6.469440 -0.000001 -177.079000 10.699600 165.975000 -39.081100 -0.002282 -0.040193 0.085847 -0.073490 48.338200 -40.985400 0.000008 0.000006 6.515340 -0.745842 -91.863000 -11.754300 -0.000006 -0.000006 -0.012373 -0.120587 -21.489400
0.000000 0.000000 0.000000 0.000000 0.000000 -0.000000 -0.103762 85.194200 449.012000 -92.133400 6.818260 168.951000 15.735700 0.000005 -0.000001 109.486000 80.624600 -109.636000 8.984550 -0.406207 -0.000000 9.962010 6.213060 -0.841340 16.377300 -0.000001 -0.000001 1.073720 -0.212667 0.843834 6.456720 -0.000001 -0.000000 -2.002990 -1.148810 -3.352260 12.994200 -0.242716 4.980390 -87.669600 -6.180950 -69.295300 5.348090 -0.000007 -0.000001 -80.203800 41.066500 24.499300 24.328600 0.000019 0.000005 -2.798950 -1.965310 -54.949400 22.291600 -0.000001 0.000005 -0.142778 5.644410 -14.503000 12.994500 -0.242716 -4.980390 88.901800 3.057400 -70.231500 -5.348130 -0.000001 -0.000004 -56.622400 21.741300 -42.904300 -24.328900 0.000322 -0.000009 -3.650280 1.172220 -107.778000 -22.291500 -0.000108 -0.000004 27.587700 5.656880 -15.710600 -2.192480 -6.469440 -0.000000 172.615000 -0.142539 -49.544900 39.081100 -0.000007 -0.000012 -0.411406 -0.088230 102.105000 40.985400 -0.000006 -0.000013 9.859560 -11.122700 -56.478400 11.754300 -0.000000 0.000003 -0.007835 -0.086689 -20.106700 -2.192510 6.469440 -0.000001 178.205000 10.860900 173.751000 -39.081100 -0.002282 -0.040193 0.039662 -0.045644 38.555400 -40.985400 0.000008 0.000006 6.591780 2.689620 -79.720900 -11.754300 -0.000006 -0.000006 -0.056178 -0.319145 -29.739600
0.000000 0.000000 0.000000 0.000000 0.000000 -0.000000 -0.348026 88.386500 442.065000 -93.574500 7.837320 167.622000 15.735700 0.000005 -0.000001 113.175000 81.313900 -114.452000 8.984550 -0.406207 -0.000000 8.325510 6.799610 -3.047700 16.377300 -0.000001 -0.000001 1.445280 0.004817 0.729489 6.456720 -0.000001 -0.000000 -1.347750 -2.129640 -2.386690 12.994200 -0.242716 4.980390 -86.914500 -7.959490 -68.730000 5.348090 -0.000007 -0.000001 -82.365800 38.050400 29.511100 24.328600 0.000019 0.000005 -4.011580 -2.324000 -59.962300 22.291600 -0.000001 0.000005 0.236016 5.642130 -14.305300 12.994500 -0.242716 -4.980390 89.372100 1.761530 -70.376700 -5.348130 -0.000001 -0.000004 -58.237500 23.570000 -42.702700 -24.328900 0.000322 -0.000009 -3.467100 1.325170 -110.892000 -22.291500 -0.000108 -0.000004 25.929800 5.647330 -14.762100 -2.192480 -6.469440 -0.000000 170.857000 0.178710 -50.557000 39.081100 -0.000007 -0.000012 -0.204286 0.010259 87.127400 40.985400 -0.000006 -0.000013 9.140080 -11.546900 -60.555600 11.754300 -0.000000 0.000003 -0.009023 -0.096198 -20.495200 -2.192510 6.469440 -0.000001 174.618000 12.926600 177.749000 -39.081100 -0.002282 -0.040193 0.035234 -0.051579 31.764200 -40.985400 0.000008 0.000006 6.188880 7.447680 -62.988200 -11.754300 -0.000006 -0.000006 -0.177195 -0.605808 -42.380100
0.000000 0.000000 0.000000 0.000000 0.000000 -0.000000 -0.402172 91.244800 435.202000 -92.735100 7.899620 166.993000 15.735700 0.000005 -0.000001 114.758000 81.648800 -116.266000 8.984550 -0.406207 -0.000000 7.537260 6.970920 -3.476500 16.377300 -0.000001 -0.000001 1.486450 0.182202 0.489986 6.456720 -0.000001 -0.000000 -1.519850 -2.646670 -1.842610 12.994200 -0.242716 4.980390 -86.414200 -9.329710 -68.865900 5.348090 -0.000007 -0.000001 -84.458100 34.350700 32.083000 24.328600 0.000019 0.000005 -4.614190 -2.314620 -63.415900 22.291600 -0.000001 0.000005 2.303700 5.645470 -14.595800 12.994500 -0.242716 -4.980390 89.724600 0.799340 -70.987600 -5.348130 -0.000001 -0.000004 -59.420600 26.432000 -40.985300 -24.328900 0.000322 -0.000009 -3.351010 1.282100 -110.914000 -22.291500 -0.000108 -0.000004 24.253100 5.638180 -13.975000 -2.192480 -6.469440 -0.000000 171.817000 -0.132913 -47.849700 39.081100 -0.000007 -0.000012 -0.066758 0.026696 68.208000 40.985400 -0.000006 -0.000013 7.380570 -9.454160 -64.247200 11.754300 -0.000000 0.000003 -0.008245 -0.090028 -20.243100 -2.192510 6.469440 -0.000001 172.607000 17.336600 -178.827000 -39.081100 -0.002282 -0.040193 0.055946 -0.105492 26.517400 -40.985400 0.000008 0.000006 3.452270 14.790700 -44.972900 -11.754300 -0.000006 -0.000006 -0.200985 -0.646736 -44.299600
0.000000 0.000000 0.000000 0.000000 0.000000 -0.000000 -0.035301 92.788800 428.098000 -90.767800 6.820540 167.997000 15.735700 0.000005 -0.000001 113.770000 81.535700 -114.942000 8.984550 -0.406207 -0.000000 7.838760 6.794780 -2.808840 16.377300 -0.000001 -0.000001 1.519480 -0.112457 0.338462 6.456720 -0.000001 -0.000000 -2.149600 -2.925550 -1.640020 12.994200 -0.242716 4.980390 -86.126700 -10.573700 -69.747600 5.348090 -0.000007 -0.000001 -85.991200 30.560300 32.430000 24.328600 0.000019 0.000005 -5.269260 -2.379750 -65.761700 22.291600 -0.000001 0.000005 3.137270 5.644430 -14.506300 12.994500 -0.242716 -4.980390 89.993200 0.020374 -71.547700 -5.348130 -0.000001 -0.000004 -60.202000 30.097700 -37.901500 -24.328900 0.000322 -0.000009 -4.977570 1.606320 -107.842000 -22.291500 -0.000108 -0.000004 23.867000 5.632730 -13.543500 -2.192480 -6.469440 -0.000000 174.284000 -0.543689 -41.172100 39.081100 -0.000007 -0.000012 -0.005055 0.004648 47.421800 40.985400 -0.000006 -0.000013 5.267650 -4.582880 -66.670700 11.754300 -0.000000 0.000003 -0.007548 -0.084309 -20.009500 -2.192510 6.469440 -0.000001 172.758000 16.071400 -174.893000 -39.081100 -0.002282 -0.040193 0.074428 -0.159014 24.095300 -40.985400 0.000008 0.000006 -3.589860 14.437100 -31.590500 -11.754300 -0.000006 -0.000006 -0.048894 -0.293793 -28.670200
